<svg width="40" height="40" viewBox="0 0 40 40" fill="none" xmlns="http://www.w3.org/2000/svg">
<path d="M11.5556 21.2533C9.49823 19.6477 7.57132 17.8815 5.7929 15.9716C4.4142 14.492 3.15234 12.9077 2.01867 11.2329C4.62401 5.89956 9.53245 1.8969 15.4489 0.520012C14.8303 1.9481 14.292 3.40963 13.8365 4.89779C12.2 10.2222 11.5556 15.6987 11.5556 21.2533ZM18.6 0.0480126C17.7172 1.86589 16.9766 3.74945 16.3849 5.68179C15.6202 8.17682 15.0542 10.7285 14.6924 13.3129C19.4942 10.5404 24.5733 8.35467 29.9964 7.11112C31.9031 6.67379 33.4009 6.42667 34.5573 6.28623C32.6895 4.29887 30.434 2.71565 27.9302 1.63443C25.4263 0.553203 22.7273 -0.00306033 20 1.26629e-05C19.5289 1.26629e-05 19.0622 0.0160127 18.6 0.0480126ZM36.5804 8.81156C34.5653 8.95378 32.5893 9.25245 30.592 9.71023C28.0485 10.2952 25.5554 11.0808 23.136 12.0596C27.9378 14.8329 32.3707 18.1378 36.1591 22.2133C37.2207 23.3523 38.2178 24.5497 39.1458 25.8C39.7013 23.9644 40 22.0169 40 20C40 15.8551 38.7396 12.0044 36.5804 8.81156ZM37.9804 28.768C36.8468 27.0932 35.5849 25.5089 34.2062 24.0293C32.4281 22.1191 30.5015 20.3527 28.4444 18.7467C28.4444 24.3013 27.7991 29.7778 26.1627 35.1022C25.5876 36.9751 25.0516 38.3973 24.5947 39.4693C30.4916 38.0827 35.3804 34.088 37.9804 28.768ZM21.3991 39.952C22.2819 38.1344 23.0225 36.2511 23.6142 34.3191C24.3794 31.8232 24.9456 29.2706 25.3076 26.6853C20.5049 29.4587 15.4267 31.6435 10.0036 32.8871C8.09601 33.3244 6.59734 33.5715 5.4409 33.7129C7.30883 35.7006 9.5646 37.2841 12.0688 38.3655C14.573 39.4469 17.2723 40.0032 20 40C20.4705 40 20.9369 39.984 21.3991 39.952ZM3.41867 31.1867C5.43379 31.0444 7.40979 30.7458 9.40712 30.288C11.9503 29.7032 14.4431 28.918 16.8622 27.9395C12.0596 25.1662 7.62845 21.8613 3.84001 17.7867C2.5049 16.3511 1.54134 15.176 0.840897 14.2436C0.281538 16.1111 -0.00175465 18.0505 8.17646e-06 20C8.17646e-06 24.144 1.26045 27.9938 3.41867 31.1867Z" fill="#00EFC8"/>
</svg>
